# xmcd
#
# Track frame offsets: 
#        150
#        16727
#        30315
#        46291
#        60831
#        77022
#        91097
#        110127
#        121726
#        139481
#        150564
#        165529
#        184402
#        200422
#        212249
#        227006
#        241324
#        260122
#        273317
#        293082
#        314245
#        329267
#
# Disc length: 4765 seconds
#
# Revision: 10
# Processed by: cddbd v1.5.2PL0 Copyright (c) Steve Scherf et al.
# Submitted via: ExactAudioCopy v0.99pb3
#
DISCID=35129b16
DTITLE=Various Artist - Small World Big Band Volume 2: More Friends
DYEAR=2002
DGENRE=Blues
TTITLE0=Jools Holland feat. Sam Moore and Sam Brown - Together We Are St
TTITLE0=rong
TTITLE1=Jools Holland feat. Norah Jones - In the Dark
TTITLE2=Jools Holland feat. Edwin Starr - Snowflake Boogie
TTITLE3=Jools Holland feat. Bryan Ferry - The Only Face
TTITLE4=Jools Holland feat. Dionne Warwick - What Goes Around 
TTITLE5=Jools Holland feat. Tom Jones - Don't You Kiss My Cheek
TTITLE6=Jools Holland feat. Chrissie Hynde - Out Of This World
TTITLE7=Jools Holland feat. The Blind Boys Of Alabama - Rock Me 
TTITLE8=Jools Holland feat. Stereophonics - The First Time Ever I Saw 
TTITLE8=Your Face
TTITLE9=Jools Holland feat. Huey [Fun Lovin' Criminals] - Fly Me To Th
TTITLE9=e Moon
TTITLE10=Jools Holland feat. Badly Drawn Boy - The Can Is Open
TTITLE11=Jools Holland feat. Ray Davies - Yours Truely, Confused N10
TTITLE12=Jools Holland and His Rhythm and Blues Orchestra - Tuxedo Junct
TTITLE12=ion
TTITLE13=Jools Holland feat. Robert Plant - Let The Boogie Woogie Roll
TTITLE14=Jools Holland feat. Jeff Beck - Drown In My Own Tears
TTITLE15=Jools Holland feat. Ruby Turner - Count Me In
TTITLE16=Jools Holland feat. Marianne Faithfull - You Got To Serve Som
TTITLE16=ebody 
TTITLE17=Jools Holland and Chris Barber and Guy Barker - Anglegrinder Blue
TTITLE17=s
TTITLE18=Jools Holland feat. Beverley Knight - Change Is Gonna Come
TTITLE19=Jools Holland feat. George Benson - Teardrops From My Eyes
TTITLE20=Jools Holland feat. Jimmy Cliff - Dreams
TTITLE21=Jools Holland feat. Bono - If You Wear That Velvet Dress
EXTD=
EXTT0=
EXTT1=
EXTT2=
EXTT3=
EXTT4=
EXTT5=
EXTT6=
EXTT7=
EXTT8=
EXTT9=
EXTT10=
EXTT11=
EXTT12=
EXTT13=
EXTT14=
EXTT15=
EXTT16=
EXTT17=
EXTT18=
EXTT19=
EXTT20=
EXTT21=
PLAYORDER=
